<?xml version="1.0" encoding="utf-8"?>
<!-- Generator: Adobe Illustrator 26.0.1, SVG Export Plug-In . SVG Version: 6.00 Build 0)  -->
<svg version="1.1" id="Layer_1" xmlns="http://www.w3.org/2000/svg" xmlns:xlink="http://www.w3.org/1999/xlink" x="0px" y="0px"
	 viewBox="0 0 230.81 200.17" style="enable-background:new 0 0 230.81 200.17;" xml:space="preserve">
<style type="text/css">
	.st0{fill:#EF3C48;}
</style>
<path class="st0" d="M147.07,51.01l-32.19-32.49c-0.54-0.53-1.18-0.95-1.88-1.24c-0.69-0.28-1.45-0.43-2.2-0.43
	c-1.51,0-2.96,0.6-4.02,1.66l-81.5,81.23c-1.08,1.07-1.68,2.53-1.68,4.05c0,1.51,0.6,2.97,1.68,4.04l32.48,32.49
	c0.54,0.52,1.18,0.95,1.87,1.23c0.7,0.29,1.45,0.44,2.2,0.43c1.51,0,2.94-0.6,4.02-1.66l16.25-16.25l48.73-48.74l16.25-16.25
	c1.08-1.07,1.68-2.53,1.68-4.04C148.74,53.54,148.14,52.09,147.07,51.01L147.07,51.01z M126.75,63.17l-4.08-4.08
	c-1.08-1.07-2.53-1.66-4.05-1.66c-1.51,0-2.97,0.6-4.05,1.66c-0.53,0.54-0.95,1.18-1.25,1.88c-0.28,0.7-0.44,1.45-0.44,2.2
	c0,0.77,0.16,1.51,0.44,2.22c0.3,0.7,0.72,1.32,1.25,1.86l4.08,4.08l-8.14,8.09L98.34,67.25c-1.11-0.94-2.51-1.44-3.97-1.38
	c-1.43,0.05-2.81,0.65-3.84,1.68c-1.02,1.02-1.62,2.39-1.67,3.84c-0.06,1.45,0.44,2.86,1.38,3.95l12.17,12.17l-8.14,8.16l-4.02-4.08
	c-1.08-1.08-2.54-1.69-4.08-1.69c-1.52,0-2.98,0.61-4.06,1.69c-1.08,1.08-1.69,2.54-1.69,4.08s0.61,3,1.69,4.08l4.06,4.01
	l-8.08,8.16L65.85,99.74c-1.08-1.07-2.53-1.68-4.05-1.68c-1.52,0-2.97,0.61-4.05,1.68c-1.07,1.07-1.66,2.53-1.66,4.05
	c0,1.51,0.6,2.97,1.66,4.04L69.91,120l-8.09,8.16l-24.39-24.4l73.07-73.07l24.39,24.4L126.75,63.17z M126.75,63.17"/>
<path class="st0" d="M86.73,183.32h103.33c1.52,0,2.98-0.61,4.06-1.68c1.07-1.08,1.68-2.54,1.68-4.06V74.26
	c0-1.52-0.61-2.98-1.68-4.06c-1.08-1.08-2.54-1.68-4.06-1.68h-34.44c-1.52,0-2.98,0.6-4.06,1.68c-1.07,1.08-1.68,2.54-1.68,4.06
	v63.14H86.73c-1.52,0-2.97,0.61-4.05,1.68c-1.08,1.08-1.68,2.54-1.68,4.06v34.44c0,1.52,0.6,2.98,1.68,4.06
	C83.76,182.71,85.21,183.32,86.73,183.32L86.73,183.32z M92.47,148.88h11.48v5.74c0,1.52,0.61,2.99,1.68,4.05
	c1.08,1.08,2.54,1.69,4.06,1.69c1.52,0,2.98-0.61,4.05-1.69c1.08-1.07,1.69-2.53,1.69-4.05v-5.74h11.48v5.74
	c0,1.52,0.6,2.99,1.68,4.05c1.08,1.08,2.53,1.69,4.05,1.69c1.52,0,2.98-0.61,4.06-1.69c1.08-1.07,1.68-2.53,1.68-4.05v-5.74h11.48
	v5.74c0,1.52,0.61,2.99,1.68,4.05c1.08,1.08,2.54,1.69,4.06,1.69c1.52,0,2.98-0.61,4.05-1.69c1.08-1.07,1.69-2.53,1.69-4.05v-5.74
	h5.74c1.52,0,2.97-0.61,4.05-1.69c1.08-1.07,1.68-2.53,1.68-4.05c0-1.52-0.6-2.98-1.68-4.06c-1.08-1.07-2.53-1.68-4.05-1.68h-5.74
	v-11.48h5.74c1.52,0,2.97-0.6,4.05-1.68c1.08-1.08,1.68-2.53,1.68-4.05c0-1.53-0.6-2.98-1.68-4.06c-1.08-1.08-2.53-1.68-4.05-1.68
	h-5.74v-11.48h5.74c1.52,0,2.97-0.61,4.05-1.68c1.08-1.08,1.68-2.54,1.68-4.06s-0.6-2.98-1.68-4.05c-1.08-1.08-2.53-1.69-4.05-1.69
	h-5.74V79.99h22.96v91.85H92.47V148.88z M92.47,148.88"/>
</svg>
